<svg width="33" height="32" viewBox="0 0 33 32" fill="none" xmlns="http://www.w3.org/2000/svg">
<path d="M26.2495 14.41L18.0901 14.41L18.0901 6.2506C18.0901 5.36968 17.381 4.66058 16.5001 4.66058C15.6192 4.66058 14.9101 5.36968 14.9101 6.2506L14.9101 14.41L6.7507 14.41C5.86979 14.41 5.16069 15.1191 5.16069 16C5.16069 16.8809 5.86979 17.59 6.7507 17.59L14.9101 17.59L14.9101 25.7494C14.9101 26.6303 15.6192 27.3394 16.5001 27.3394C17.381 27.3394 18.0901 26.6303 18.0901 25.7494L18.0901 17.59L26.2495 17.59C27.1304 17.59 27.8395 16.8809 27.8395 16C27.8364 15.1222 27.1242 14.41 26.2495 14.41Z" fill="#D9D9D9"/>
</svg>
