<svg width="70" height="69" viewBox="0 0 70 69" fill="none" xmlns="http://www.w3.org/2000/svg">
<path d="M10.3886 68.0761C9.72248 68.0761 9.08363 67.8115 8.6126 67.3405C8.14157 66.8695 7.87695 66.2306 7.87695 65.5645V2.51166C7.87695 1.84553 8.14157 1.20668 8.6126 0.735649C9.08363 0.264621 9.72248 0 10.3886 0C11.0548 0 11.6936 0.264621 12.1646 0.735649C12.6357 1.20668 12.9003 1.84553 12.9003 2.51166V65.5645C12.9003 66.2306 12.6357 66.8695 12.1646 67.3405C11.6936 67.8115 11.0548 68.0761 10.3886 68.0761Z" fill="#878787"/>
<path d="M18.2648 53.9505H2.51166C1.84553 53.9505 1.20668 53.6859 0.735649 53.2149C0.264621 52.7438 0 52.105 0 51.4388C0 50.7727 0.264621 50.1339 0.735649 49.6628C1.20668 49.1918 1.84553 48.9272 2.51166 48.9272H18.2648C18.931 48.9272 19.5698 49.1918 20.0408 49.6628C20.5119 50.1339 20.7765 50.7727 20.7765 51.4388C20.7765 52.105 20.5119 52.7438 20.0408 53.2149C19.5698 53.6859 18.931 53.9505 18.2648 53.9505Z" fill="#878787"/>
<path d="M58.9335 68.0761C58.2674 68.0761 57.6286 67.8115 57.1575 67.3405C56.6865 66.8695 56.4219 66.2306 56.4219 65.5645V2.51166C56.4219 1.84553 56.6865 1.20668 57.1575 0.735649C57.6286 0.264621 58.2674 0 58.9335 0C59.5997 0 60.2385 0.264621 60.7096 0.735649C61.1806 1.20668 61.4452 1.84553 61.4452 2.51166V65.5645C61.4452 66.2306 61.1806 66.8695 60.7096 67.3405C60.2385 67.8115 59.5997 68.0761 58.9335 68.0761Z" fill="#878787"/>
<path d="M66.8107 53.9505H51.0576C50.3914 53.9505 49.7526 53.6859 49.2815 53.2149C48.8105 52.7438 48.5459 52.105 48.5459 51.4388C48.5459 50.7727 48.8105 50.1339 49.2815 49.6628C49.7526 49.1918 50.3914 48.9272 51.0576 48.9272H66.8107C67.4769 48.9272 68.1157 49.1918 68.5867 49.6628C69.0578 50.1339 69.3224 50.7727 69.3224 51.4388C69.3224 52.105 69.0578 52.7438 68.5867 53.2149C68.1157 53.6859 67.4769 53.9505 66.8107 53.9505Z" fill="#878787"/>
<path d="M34.6611 68.0761C33.9949 68.0761 33.3561 67.8115 32.8851 67.3405C32.414 66.8695 32.1494 66.2306 32.1494 65.5645V2.51166C32.1494 1.84553 32.414 1.20668 32.8851 0.735649C33.3561 0.264621 33.9949 0 34.6611 0C35.3272 0 35.9661 0.264621 36.4371 0.735649C36.9081 1.20668 37.1727 1.84553 37.1727 2.51166V65.5645C37.1727 66.2306 36.9081 66.8695 36.4371 67.3405C35.9661 67.8115 35.3272 68.0761 34.6611 68.0761Z" fill="#878787"/>
<path d="M42.5383 19.149H26.7851C26.119 19.149 25.4801 18.8844 25.0091 18.4133C24.5381 17.9423 24.2734 17.3035 24.2734 16.6373C24.2734 15.9712 24.5381 15.3323 25.0091 14.8613C25.4801 14.3903 26.119 14.1257 26.7851 14.1257H42.5383C43.2044 14.1257 43.8432 14.3903 44.3143 14.8613C44.7853 15.3323 45.0499 15.9712 45.0499 16.6373C45.0499 17.3035 44.7853 17.9423 44.3143 18.4133C43.8432 18.8844 43.2044 19.149 42.5383 19.149Z" fill="#878787"/>
</svg>
