<svg width="58" height="58" viewBox="0 0 58 58" fill="none" xmlns="http://www.w3.org/2000/svg">
<path d="M47.8746 16.3166L42.1116 10.5536C41.8415 10.2871 41.4985 10.1065 41.1258 10.0347C40.7532 9.96289 40.3676 10.0031 40.0178 10.1502C39.6669 10.2943 39.3666 10.539 39.1547 10.8535C38.9427 11.168 38.8286 11.5383 38.8267 11.9175V15.7595H15.7749C14.2465 15.7595 12.7807 16.3666 11.6999 17.4474C10.6191 18.5282 10.012 19.994 10.012 21.5224V27.2854C10.012 27.7949 10.2144 28.2835 10.5746 28.6437C10.9349 29.004 11.4235 29.2064 11.9329 29.2064C12.4424 29.2064 12.931 29.004 13.2913 28.6437C13.6515 28.2835 13.8539 27.7949 13.8539 27.2854V21.5224C13.8539 21.013 14.0563 20.5243 14.4166 20.1641C14.7768 19.8038 15.2654 19.6014 15.7749 19.6014H38.8267V23.4434C38.8286 23.8227 38.9427 24.1929 39.1547 24.5074C39.3666 24.8219 39.6669 25.0666 40.0178 25.2107C40.2457 25.3183 40.4957 25.3709 40.7477 25.3644C41.0005 25.3659 41.2512 25.3174 41.4852 25.2218C41.7193 25.1262 41.9321 24.9854 42.1116 24.8073L47.8746 19.0444C48.0546 18.8658 48.1975 18.6533 48.2951 18.4192C48.3926 18.1851 48.4428 17.9341 48.4428 17.6805C48.4428 17.4269 48.3926 17.1758 48.2951 16.9417C48.1975 16.7076 48.0546 16.4951 47.8746 16.3166Z" fill="#878787"/>
<path d="M46.5099 29.2065C46.0004 29.2065 45.5118 29.4089 45.1515 29.7691C44.7913 30.1294 44.5889 30.618 44.5889 31.1275V36.8904C44.5889 37.3999 44.3865 37.8885 44.0262 38.2488C43.666 38.609 43.1774 38.8114 42.6679 38.8114H19.6161V34.9694C19.6142 34.5902 19.5001 34.22 19.2881 33.9055C19.0762 33.591 18.7759 33.3462 18.4251 33.2021C18.0752 33.055 17.6897 33.0148 17.317 33.0866C16.9444 33.1584 16.6013 33.339 16.3312 33.6055L10.5682 39.3685C10.3882 39.5471 10.2453 39.7595 10.1477 39.9936C10.0502 40.2277 10 40.4788 10 40.7324C10 40.986 10.0502 41.2371 10.1477 41.4712C10.2453 41.7053 10.3882 41.9177 10.5682 42.0963L16.3312 47.8592C16.5107 48.0373 16.7236 48.1781 16.9576 48.2737C17.1916 48.3693 17.4423 48.4178 17.6951 48.4163C17.9471 48.4228 18.1971 48.3702 18.4251 48.2627C18.7759 48.1185 19.0762 47.8738 19.2881 47.5593C19.5001 47.2448 19.6142 46.8746 19.6161 46.4954V42.6534H42.6679C44.1963 42.6534 45.6622 42.0462 46.7429 40.9655C47.8237 39.8847 48.4308 38.4189 48.4308 36.8904V31.1275C48.4308 30.618 48.2285 30.1294 47.8682 29.7691C47.5079 29.4089 47.0193 29.2065 46.5099 29.2065Z" fill="#878787"/>
</svg>
