<svg width="233" height="266" viewBox="0 0 233 266" fill="none" xmlns="http://www.w3.org/2000/svg">
<path d="M70.5503 46.5918V73.4057V101.427V180.295C63.5081 175.991 55.2551 173.465 46.3912 173.465C20.7769 173.465 0 194.184 0 219.718C0 245.28 20.7713 266 46.3912 266C71.9943 266 92.7601 245.286 92.7657 219.729V95.0562L210.785 61.212V140.368C203.742 136.064 195.489 133.537 186.625 133.537C161 133.537 140.234 154.252 140.234 179.786C140.234 205.342 161 226.067 186.625 226.067C210.751 226.067 230.579 207.647 232.778 184.129H233V54.841V34.9743V0L70.5503 46.5918Z" fill="white"/>
</svg>
