<svg width="37" height="37" viewBox="0 0 37 37" fill="none" xmlns="http://www.w3.org/2000/svg">
<path d="M18.5352 8.33862C24.1654 8.33862 28.7314 12.9047 28.7314 18.5349C28.7314 24.1652 24.1655 28.7312 18.5352 28.7312C12.9049 28.7311 8.33887 24.1652 8.33887 18.5349C8.33894 12.9047 12.905 8.33869 18.5352 8.33862ZM18.5352 11.0085C16.5264 11.0086 14.6347 11.7928 13.2139 13.2136C11.7931 14.6344 11.0088 16.5262 11.0088 18.5349C11.0088 20.5437 11.793 22.4363 13.2139 23.8572C14.6346 25.2778 16.5266 26.0612 18.5352 26.0613C20.5439 26.0613 22.4366 25.278 23.8574 23.8572C25.2783 22.4363 26.0615 20.5437 26.0615 18.5349C26.0615 16.5264 25.278 14.6344 23.8574 13.2136C22.4366 11.7928 20.5439 11.0085 18.5352 11.0085Z" fill="#878787" stroke="#878787" stroke-width="1.5"/>
<path d="M21.1915 6.25428C21.644 5.69966 21.913 4.99284 21.913 4.22137C21.913 2.44284 20.4701 1 18.6916 1C16.9131 1 15.4702 2.44284 15.4702 4.22137C15.4702 4.99284 15.7413 5.69966 16.1916 6.25428C16.1958 6.25845 16.2 6.26262 16.2041 6.26888C16.2542 6.4753 16.3334 6.91941 16.1583 7.4219C16.077 7.65542 15.9644 7.83682 15.8664 7.96401C17.6866 7.96401 19.5048 7.96401 21.325 7.96401C21.325 7.96401 20.8433 7.10914 21.1915 6.25428Z" fill="#878787" stroke="#878787" stroke-width="1.5" stroke-miterlimit="10"/>
<path d="M6.25428 16.0434C5.69966 15.591 4.99284 15.322 4.22137 15.322C2.44284 15.322 1 16.7649 1 18.5434C1 20.3219 2.44284 21.7648 4.22137 21.7648C4.99284 21.7648 5.69966 21.4937 6.25428 21.0433C6.25845 21.0392 6.26262 21.035 6.26888 21.0308C6.4753 20.9808 6.91941 20.9016 7.4219 21.0767C7.65542 21.158 7.83682 21.2706 7.96401 21.3686C7.96401 19.5484 7.96401 17.7302 7.96401 15.91C7.96401 15.91 7.10914 16.3916 6.25428 16.0434Z" fill="#878787" stroke="#878787" stroke-width="1.5" stroke-miterlimit="10"/>
<path d="M30.7117 20.9872C31.2663 21.4396 31.9731 21.7086 32.7446 21.7086C34.5231 21.7086 35.966 20.2658 35.966 18.4872C35.966 16.7087 34.5231 15.2659 32.7446 15.2659C31.9731 15.2659 31.2663 15.5369 30.7117 15.9873C30.7075 15.9915 30.7033 15.9956 30.6971 15.9998C30.4907 16.0498 30.0466 16.1291 29.5441 15.9539C29.3105 15.8726 29.1291 15.76 29.002 15.662C29.002 17.4823 29.002 19.3004 29.002 21.1206C29.002 21.1206 29.8568 20.639 30.7117 20.9872Z" fill="#878787" stroke="#878787" stroke-width="1.5" stroke-miterlimit="10"/>
<path d="M16.2019 30.6492C15.7494 31.2038 15.4805 31.9106 15.4805 32.6821C15.4805 34.4606 16.9233 35.9035 18.7018 35.9035C20.4804 35.9035 21.9232 34.4606 21.9232 32.6821C21.9232 31.9106 21.6522 31.2038 21.2018 30.6492C21.1976 30.645 21.1935 30.6408 21.1893 30.6346C21.1392 30.4282 21.06 29.9841 21.2352 29.4816C21.3165 29.248 21.4291 29.0666 21.5271 28.9395C19.7068 28.9395 17.8887 28.9395 16.0684 28.9395C16.0664 28.9395 16.548 29.7943 16.2019 30.6492Z" fill="#878787" stroke="#878787" stroke-width="1.5" stroke-miterlimit="10"/>
<path d="M11.5422 8.04956C11.4692 7.33856 11.1606 6.64633 10.6164 6.10214C9.35915 4.84486 7.31791 4.84486 6.06063 6.10214C4.80336 7.35941 4.80336 9.40066 6.06063 10.6579C6.60483 11.2021 7.29706 11.5128 8.00805 11.5837C8.01431 11.5837 8.02056 11.5837 8.02682 11.5858C8.20821 11.6963 8.57935 11.9548 8.81079 12.4344C8.91921 12.6575 8.96508 12.866 8.98802 13.0244C10.2745 11.738 11.5609 10.4515 12.8474 9.16505C12.8453 9.16296 11.9008 8.90025 11.5422 8.04956Z" fill="#878787" stroke="#878787" stroke-width="1.5" stroke-miterlimit="10"/>
<path d="M29.0476 11.6567C29.7586 11.5837 30.4509 11.2751 30.9951 10.7309C32.2523 9.47365 32.2523 7.43241 30.9951 6.17513C29.7378 4.91786 27.6965 4.91786 26.4393 6.17513C25.8951 6.71933 25.5844 7.41156 25.5135 8.12255C25.5135 8.12881 25.5135 8.13506 25.5114 8.14132C25.4009 8.32272 25.1424 8.69385 24.6628 8.92529C24.4397 9.03371 24.2312 9.07958 24.0728 9.10252C25.3592 10.389 26.6457 11.6754 27.9321 12.9619C27.9342 12.9598 28.199 12.0153 29.0476 11.6567Z" fill="#878787" stroke="#878787" stroke-width="1.5" stroke-miterlimit="10"/>
<path d="M8.2268 25.5137C7.51581 25.5867 6.82357 25.8953 6.27938 26.4395C5.02211 27.6968 5.02211 29.738 6.27938 30.9953C7.53666 32.2526 9.5779 32.2526 10.8352 30.9953C11.3794 30.4511 11.69 29.7589 11.7609 29.0479C11.7609 29.0416 11.7609 29.0353 11.763 29.0291C11.8735 28.8477 12.1321 28.4766 12.6116 28.2451C12.8347 28.1367 13.0432 28.0908 13.2017 28.0679C11.9152 26.7814 10.6288 25.495 9.34229 24.2085C9.34021 24.2106 9.07749 25.1551 8.2268 25.5137Z" fill="#878787" stroke="#878787" stroke-width="1.5" stroke-miterlimit="10"/>
<path d="M25.378 29.1209C25.451 29.8319 25.7595 30.5241 26.3037 31.0683C27.561 32.3256 29.6023 32.3256 30.8595 31.0683C32.1168 29.811 32.1168 27.7698 30.8595 26.5125C30.3153 25.9683 29.6231 25.6576 28.9121 25.5868C28.9059 25.5868 28.8996 25.5868 28.8934 25.5847C28.712 25.4742 28.3408 25.2156 28.1094 24.7361C28.001 24.513 27.9551 24.3045 27.9321 24.146C26.6457 25.4325 25.3592 26.7189 24.0728 28.0054C24.0748 28.0075 25.0194 28.2723 25.378 29.1209Z" fill="#878787" stroke="#878787" stroke-width="1.5" stroke-miterlimit="10"/>
</svg>
