<svg width="35" height="35" viewBox="0 0 35 35" fill="none" xmlns="http://www.w3.org/2000/svg">
<path d="M17.5353 10.7587C19.3451 10.7587 21.0465 11.4634 22.3267 12.7436C23.6069 14.0238 24.3116 15.7252 24.3116 17.535C24.3116 19.3449 23.6069 21.0462 22.3267 22.3264C21.0465 23.6067 19.3451 24.3114 17.5353 24.3114C15.7255 24.3114 14.0241 23.6067 12.7439 22.3264C11.4637 21.0462 10.7589 19.3449 10.7589 17.535C10.7589 15.7252 11.4637 14.0238 12.7439 12.7436C14.0241 11.4634 15.7255 10.7587 17.5353 10.7587ZM17.5353 6.58862C11.4908 6.58862 6.58887 11.4905 6.58887 17.535C6.58887 23.5796 11.4908 28.4815 17.5353 28.4815C23.5798 28.4815 28.4817 23.5796 28.4817 17.535C28.4817 11.4905 23.5798 6.58862 17.5353 6.58862Z" fill="white"/>
<path d="M20.1915 5.25428C20.644 4.69966 20.913 3.99284 20.913 3.22137C20.913 1.44284 19.4701 0 17.6916 0C15.9131 0 14.4702 1.44284 14.4702 3.22137C14.4702 3.99284 14.7413 4.69966 15.1916 5.25428C15.1958 5.25845 15.2 5.26262 15.2041 5.26888C15.2542 5.4753 15.3334 5.91941 15.1583 6.4219C15.077 6.65542 14.9644 6.83682 14.8664 6.96401C16.6866 6.96401 18.5048 6.96401 20.325 6.96401C20.325 6.96401 19.8433 6.10914 20.1915 5.25428Z" fill="white"/>
<path d="M5.25428 15.0434C4.69966 14.591 3.99284 14.322 3.22137 14.322C1.44284 14.322 0 15.7649 0 17.5434C0 19.3219 1.44284 20.7648 3.22137 20.7648C3.99284 20.7648 4.69966 20.4937 5.25428 20.0433C5.25845 20.0392 5.26262 20.035 5.26888 20.0308C5.4753 19.9808 5.91941 19.9016 6.4219 20.0767C6.65542 20.158 6.83682 20.2706 6.96401 20.3686C6.96401 18.5484 6.96401 16.7302 6.96401 14.91C6.96401 14.91 6.10914 15.3916 5.25428 15.0434Z" fill="white"/>
<path d="M29.7117 19.9872C30.2663 20.4396 30.9731 20.7086 31.7446 20.7086C33.5231 20.7086 34.966 19.2658 34.966 17.4872C34.966 15.7087 33.5231 14.2659 31.7446 14.2659C30.9731 14.2659 30.2663 14.5369 29.7117 14.9873C29.7075 14.9915 29.7033 14.9956 29.6971 14.9998C29.4907 15.0498 29.0466 15.1291 28.5441 14.9539C28.3105 14.8726 28.1291 14.76 28.002 14.662C28.002 16.4823 28.002 18.3004 28.002 20.1206C28.002 20.1206 28.8568 19.639 29.7117 19.9872Z" fill="white"/>
<path d="M15.2019 29.6492C14.7494 30.2038 14.4805 30.9106 14.4805 31.6821C14.4805 33.4606 15.9233 34.9035 17.7018 34.9035C19.4804 34.9035 20.9232 33.4606 20.9232 31.6821C20.9232 30.9106 20.6522 30.2038 20.2018 29.6492C20.1976 29.645 20.1935 29.6408 20.1893 29.6346C20.1392 29.4282 20.06 28.9841 20.2352 28.4816C20.3165 28.248 20.4291 28.0666 20.5271 27.9395C18.7068 27.9395 16.8887 27.9395 15.0684 27.9395C15.0664 27.9395 15.548 28.7943 15.2019 29.6492Z" fill="white"/>
<path d="M10.5422 7.04956C10.4692 6.33856 10.1606 5.64633 9.61643 5.10214C8.35915 3.84486 6.31791 3.84486 5.06063 5.10214C3.80336 6.35941 3.80336 8.40066 5.06063 9.65793C5.60483 10.2021 6.29706 10.5128 7.00805 10.5837C7.01431 10.5837 7.02056 10.5837 7.02682 10.5858C7.20821 10.6963 7.57935 10.9548 7.81079 11.4344C7.91921 11.6575 7.96508 11.866 7.98802 12.0244C9.27448 10.738 10.5609 9.45151 11.8474 8.16505C11.8453 8.16296 10.9008 7.90025 10.5422 7.04956Z" fill="white"/>
<path d="M28.0476 10.6567C28.7586 10.5837 29.4509 10.2751 29.9951 9.73093C31.2523 8.47365 31.2523 6.43241 29.9951 5.17513C28.7378 3.91786 26.6965 3.91786 25.4393 5.17513C24.8951 5.71933 24.5844 6.41156 24.5135 7.12255C24.5135 7.12881 24.5135 7.13506 24.5114 7.14132C24.4009 7.32272 24.1424 7.69385 23.6628 7.92529C23.4397 8.03371 23.2312 8.07958 23.0728 8.10252C24.3592 9.38898 25.6457 10.6754 26.9321 11.9619C26.9342 11.9598 27.199 11.0153 28.0476 10.6567Z" fill="white"/>
<path d="M7.2268 24.5137C6.51581 24.5867 5.82357 24.8953 5.27938 25.4395C4.02211 26.6968 4.02211 28.738 5.27938 29.9953C6.53666 31.2526 8.5779 31.2526 9.83518 29.9953C10.3794 29.4511 10.69 28.7589 10.7609 28.0479C10.7609 28.0416 10.7609 28.0353 10.763 28.0291C10.8735 27.8477 11.1321 27.4766 11.6116 27.2451C11.8347 27.1367 12.0432 27.0908 12.2017 27.0679C10.9152 25.7814 9.62876 24.495 8.34229 23.2085C8.34021 23.2106 8.07749 24.1551 7.2268 24.5137Z" fill="white"/>
<path d="M24.378 28.1209C24.451 28.8319 24.7595 29.5241 25.3037 30.0683C26.561 31.3256 28.6023 31.3256 29.8595 30.0683C31.1168 28.811 31.1168 26.7698 29.8595 25.5125C29.3153 24.9683 28.6231 24.6576 27.9121 24.5868C27.9059 24.5868 27.8996 24.5868 27.8934 24.5847C27.712 24.4742 27.3408 24.2156 27.1094 23.7361C27.001 23.513 26.9551 23.3045 26.9321 23.146C25.6457 24.4325 24.3592 25.7189 23.0728 27.0054C23.0748 27.0075 24.0194 27.2723 24.378 28.1209Z" fill="white"/>
</svg>
