<svg width="37" height="37" viewBox="0 0 37 37" fill="none" xmlns="http://www.w3.org/2000/svg">
<path d="M18.5353 11.7587C20.3451 11.7587 22.0465 12.4635 23.3267 13.7437C24.6069 15.0239 25.3116 16.7253 25.3116 18.5351C25.3116 20.3449 24.6069 22.0463 23.3267 23.3265C22.0465 24.6067 20.3451 25.3115 18.5353 25.3115C16.7255 25.3115 15.0241 24.6067 13.7439 23.3265C12.4637 22.0463 11.7589 20.3449 11.7589 18.5351C11.7589 16.7253 12.4637 15.0239 13.7439 13.7437C15.0241 12.4635 16.7255 11.7587 18.5353 11.7587ZM18.5353 7.58868C12.4908 7.58868 7.58887 12.4906 7.58887 18.5351C7.58887 24.5796 12.4908 29.4815 18.5353 29.4815C24.5798 29.4815 29.4817 24.5796 29.4817 18.5351C29.4817 12.4906 24.5798 7.58868 18.5353 7.58868Z" fill="white"/>
<path d="M21.1915 6.25428C21.644 5.69966 21.913 4.99284 21.913 4.22137C21.913 2.44284 20.4701 1 18.6916 1C16.9131 1 15.4702 2.44284 15.4702 4.22137C15.4702 4.99284 15.7413 5.69966 16.1916 6.25428C16.1958 6.25845 16.2 6.26262 16.2041 6.26888C16.2542 6.4753 16.3334 6.91941 16.1583 7.4219C16.077 7.65542 15.9644 7.83682 15.8664 7.96401C17.6866 7.96401 19.5048 7.96401 21.325 7.96401C21.325 7.96401 20.8433 7.10914 21.1915 6.25428Z" fill="white" stroke="white" stroke-width="1.5" stroke-miterlimit="10"/>
<path d="M6.25428 16.0435C5.69966 15.5911 4.99284 15.3221 4.22137 15.3221C2.44284 15.3221 1 16.7649 1 18.5435C1 20.322 2.44284 21.7648 4.22137 21.7648C4.99284 21.7648 5.69966 21.4938 6.25428 21.0434C6.25845 21.0392 6.26262 21.0351 6.26888 21.0309C6.4753 20.9809 6.91941 20.9016 7.4219 21.0768C7.65542 21.1581 7.83682 21.2707 7.96401 21.3687C7.96401 19.5484 7.96401 17.7303 7.96401 15.9101C7.96401 15.9101 7.10914 16.3917 6.25428 16.0435Z" fill="white" stroke="white" stroke-width="1.5" stroke-miterlimit="10"/>
<path d="M30.7117 20.9871C31.2663 21.4396 31.9731 21.7086 32.7446 21.7086C34.5231 21.7086 35.966 20.2657 35.966 18.4872C35.966 16.7087 34.5231 15.2658 32.7446 15.2658C31.9731 15.2658 31.2663 15.5369 30.7117 15.9872C30.7075 15.9914 30.7033 15.9956 30.6971 15.9997C30.4907 16.0498 30.0466 16.129 29.5441 15.9539C29.3105 15.8726 29.1291 15.76 29.002 15.662C29.002 17.4822 29.002 19.3003 29.002 21.1206C29.002 21.1206 29.8568 20.6389 30.7117 20.9871Z" fill="white" stroke="white" stroke-width="1.5" stroke-miterlimit="10"/>
<path d="M16.2019 30.6492C15.7494 31.2038 15.4805 31.9106 15.4805 32.6821C15.4805 34.4606 16.9233 35.9035 18.7018 35.9035C20.4804 35.9035 21.9232 34.4606 21.9232 32.6821C21.9232 31.9106 21.6522 31.2038 21.2018 30.6492C21.1976 30.645 21.1935 30.6408 21.1893 30.6346C21.1392 30.4282 21.06 29.9841 21.2352 29.4816C21.3165 29.248 21.4291 29.0666 21.5271 28.9395C19.7068 28.9395 17.8887 28.9395 16.0684 28.9395C16.0664 28.9395 16.548 29.7943 16.2019 30.6492Z" fill="white" stroke="white" stroke-width="1.5" stroke-miterlimit="10"/>
<path d="M11.5422 8.04949C11.4692 7.3385 11.1606 6.64627 10.6164 6.10207C9.35915 4.8448 7.31791 4.8448 6.06063 6.10207C4.80336 7.35935 4.80336 9.4006 6.06063 10.6579C6.60483 11.2021 7.29706 11.5127 8.00805 11.5836C8.01431 11.5836 8.02056 11.5836 8.02682 11.5857C8.20821 11.6962 8.57935 11.9548 8.81079 12.4343C8.91921 12.6574 8.96508 12.8659 8.98802 13.0244C10.2745 11.7379 11.5609 10.4515 12.8474 9.16499C12.8453 9.1629 11.9008 8.90019 11.5422 8.04949Z" fill="white" stroke="white" stroke-width="1.5" stroke-miterlimit="10"/>
<path d="M29.0476 11.6566C29.7586 11.5836 30.4509 11.2751 30.9951 10.7309C32.2523 9.47359 32.2523 7.43235 30.9951 6.17507C29.7378 4.9178 27.6965 4.9178 26.4393 6.17507C25.8951 6.71927 25.5844 7.4115 25.5135 8.12249C25.5135 8.12875 25.5135 8.135 25.5114 8.14126C25.4009 8.32266 25.1424 8.69379 24.6628 8.92523C24.4397 9.03365 24.2312 9.07952 24.0728 9.10246C25.3592 10.3889 26.6457 11.6754 27.9321 12.9619C27.9342 12.9598 28.199 12.0152 29.0476 11.6566Z" fill="white" stroke="white" stroke-width="1.5" stroke-miterlimit="10"/>
<path d="M8.2268 25.5137C7.51581 25.5867 6.82357 25.8953 6.27938 26.4395C5.02211 27.6968 5.02211 29.738 6.27938 30.9953C7.53666 32.2526 9.5779 32.2526 10.8352 30.9953C11.3794 30.4511 11.69 29.7589 11.7609 29.0479C11.7609 29.0416 11.7609 29.0353 11.763 29.0291C11.8735 28.8477 12.1321 28.4766 12.6116 28.2451C12.8347 28.1367 13.0432 28.0908 13.2017 28.0679C11.9152 26.7814 10.6288 25.495 9.34229 24.2085C9.34021 24.2106 9.07749 25.1551 8.2268 25.5137Z" fill="white" stroke="white" stroke-width="1.5" stroke-miterlimit="10"/>
<path d="M25.378 29.1208C25.451 29.8318 25.7595 30.524 26.3037 31.0682C27.561 32.3255 29.6023 32.3255 30.8595 31.0682C32.1168 29.811 32.1168 27.7697 30.8595 26.5124C30.3153 25.9683 29.6231 25.6576 28.9121 25.5867C28.9059 25.5867 28.8996 25.5867 28.8934 25.5846C28.712 25.4741 28.3408 25.2156 28.1094 24.736C28.001 24.5129 27.9551 24.3044 27.9321 24.1459C26.6457 25.4324 25.3592 26.7189 24.0728 28.0053C24.0748 28.0074 25.0194 28.2722 25.378 29.1208Z" fill="white" stroke="white" stroke-width="1.5" stroke-miterlimit="10"/>
</svg>
