<svg width="63" height="63" viewBox="0 0 63 63" fill="none" xmlns="http://www.w3.org/2000/svg">
<path d="M28 50.7292V13.2604C28 12.5625 27.4375 12 26.7292 12H19.2708C18.5625 12 18 12.5625 18 13.2604V50.7292C18 51.4271 18.5625 52 19.2708 52H26.7292C27.4375 52 28 51.4375 28 50.7292Z" fill="#878787"/>
<path d="M43.3957 12H35.9373C35.2394 12 34.6665 12.5625 34.6665 13.2604V50.7292C34.6665 51.4271 35.229 52 35.9373 52H43.3957C44.0936 52 44.6665 51.4375 44.6665 50.7292V13.2604C44.6665 12.5625 44.104 12 43.3957 12Z" fill="#878787"/>
</svg>
