<svg width="630" height="630" viewBox="0 0 630 630" fill="none" xmlns="http://www.w3.org/2000/svg">
<rect width="630" height="630" fill="#D9D9D9"/>
<path d="M416.498 143L417.373 143.007C435.748 143.256 453.315 150.664 466.325 163.675C479.542 176.892 486.977 194.811 487 213.502V416.5C486.977 435.191 479.542 453.109 466.325 466.325C453.108 479.542 435.189 486.977 416.498 487H213.502C194.811 486.977 176.892 479.542 163.675 466.325C150.664 453.315 143.256 435.748 143.007 417.373L143 416.498V213.502C143.023 194.811 150.458 176.892 163.675 163.675C176.685 150.664 194.252 143.256 212.627 143.007L213.502 143H416.498ZM213.5 168C201.433 168 189.859 172.793 181.326 181.326C172.793 189.859 168 201.433 168 213.5V416.5C168 428.567 172.793 440.141 181.326 448.674C189.592 456.94 200.712 461.697 212.37 461.986L213.5 462H416.5C428.567 462 440.141 457.207 448.674 448.674C457.207 440.141 462 428.567 462 416.5V213.5L461.986 212.37C461.697 200.712 456.94 189.592 448.674 181.326C440.141 172.793 428.567 168 416.5 168H213.5Z" fill="#232323" stroke="#D9D9D9" stroke-width="4"/>
<path d="M226.618 204.159C234.201 201.018 242.546 200.197 250.597 201.798C258.647 203.399 266.041 207.352 271.845 213.155C277.648 218.959 281.601 226.353 283.202 234.403C284.803 242.454 283.982 250.799 280.841 258.382C277.7 265.965 272.381 272.446 265.557 277.006C258.732 281.566 250.708 284 242.5 284C231.494 284 220.938 279.627 213.155 271.845C205.373 264.062 201 253.506 201 242.5C201 234.292 203.434 226.269 207.994 219.444C212.554 212.62 219.035 207.3 226.618 204.159ZM242.5 226C238.124 226 233.927 227.739 230.833 230.833C227.739 233.927 226 238.124 226 242.5C226 245.763 226.967 248.954 228.78 251.667C230.593 254.38 233.171 256.495 236.186 257.744C239.2 258.993 242.518 259.319 245.719 258.683C248.919 258.046 251.859 256.475 254.167 254.167C256.475 251.859 258.046 248.919 258.683 245.719C259.319 242.518 258.993 239.2 257.744 236.186C256.495 233.171 254.38 230.594 251.667 228.781C248.954 226.968 245.763 226 242.5 226Z" fill="#232323" stroke="#D9D9D9" stroke-width="4"/>
<path d="M372.627 287.998C374.329 287.908 376.03 288.187 377.615 288.814C379.199 289.441 380.63 290.403 381.809 291.632L381.823 291.647L381.836 291.661L425.314 335.239V335.24C427.591 337.597 428.851 340.754 428.823 344.032C428.794 347.309 427.479 350.445 425.162 352.762C422.844 355.08 419.709 356.394 416.431 356.422C413.256 356.45 410.193 355.269 407.862 353.125L407.639 352.915L373.615 318.89L372.207 320.498L328.222 370.724H328.172L327.576 371.408L280.915 424.739C278.73 427.235 275.642 428.762 272.332 428.982C269.021 429.202 265.759 428.098 263.262 425.914C260.766 423.729 259.239 420.641 259.019 417.331C258.799 414.02 259.903 410.758 262.087 408.261L262.086 408.26L300.555 364.372L301.79 362.962L300.465 361.639L272.916 334.088L271.501 332.675L270.087 334.087L222.339 381.779L222.314 381.804C221.161 382.998 219.781 383.95 218.256 384.605C216.731 385.26 215.091 385.605 213.431 385.62C211.771 385.634 210.125 385.317 208.589 384.689C207.053 384.06 205.658 383.132 204.484 381.958C203.31 380.785 202.382 379.389 201.753 377.853C201.125 376.317 200.808 374.671 200.823 373.011C200.837 371.352 201.182 369.711 201.837 368.186C202.493 366.661 203.445 365.282 204.639 364.129L204.651 364.117L204.664 364.105L262.664 306.105C265.008 303.762 268.186 302.445 271.5 302.445C274.815 302.445 277.994 303.761 280.338 306.104L316.733 342.514L318.244 344.025L319.652 342.417L363.583 292.264L363.584 292.265C364.716 290.978 366.099 289.936 367.648 289.203C369.197 288.469 370.88 288.059 372.593 287.999H372.61L372.627 287.998Z" fill="#232323" stroke="#D9D9D9" stroke-width="4"/>
</svg>
