<svg width="348" height="348" viewBox="0 0 348 348" fill="none" xmlns="http://www.w3.org/2000/svg">
<path d="M275.498 2L276.373 2.00684C294.748 2.25648 312.315 9.66438 325.325 22.6748C338.542 35.8916 345.978 53.8106 346 72.502V275.5C345.977 294.191 338.542 312.109 325.325 325.325C312.108 338.542 294.189 345.978 275.498 346H72.502C53.8106 345.978 35.8916 338.542 22.6748 325.325C9.66438 312.315 2.25648 294.748 2.00684 276.373L2 275.498V72.502C2.02251 53.8106 9.45799 35.8916 22.6748 22.6748C35.6852 9.66437 53.2521 2.25648 71.627 2.00684L72.502 2H275.498ZM72.5 27C60.4326 27 48.8591 31.7933 40.3262 40.3262C31.7933 48.8591 27 60.4326 27 72.5V275.5C27 287.567 31.7933 299.141 40.3262 307.674C48.8591 316.207 60.4326 321 72.5 321H275.5C287.567 321 299.141 316.207 307.674 307.674C316.207 299.141 321 287.567 321 275.5V72.5C321 60.4326 316.207 48.8591 307.674 40.3262C299.141 31.7933 287.567 27 275.5 27H72.5Z" fill="#232323" stroke="#D9D9D9" stroke-width="4"/>
<path d="M85.6182 63.1592C93.2013 60.0181 101.546 59.1966 109.597 60.7979C117.647 62.3992 125.041 66.3515 130.845 72.1553C136.648 77.959 140.601 85.3533 142.202 93.4033C143.803 101.454 142.982 109.799 139.841 117.382C136.7 124.965 131.381 131.446 124.557 136.006C117.732 140.566 109.708 143 101.5 143C90.4935 143 79.938 138.627 72.1553 130.845C64.3725 123.062 60 112.506 60 101.5C60 93.2922 62.4342 85.2689 66.9941 78.4443C71.5541 71.6198 78.0352 66.3002 85.6182 63.1592ZM101.5 85C97.1239 85 92.9274 86.7387 89.833 89.833C86.7387 92.9274 85 97.1239 85 101.5C85 104.763 85.9673 107.954 87.7803 110.667C89.5933 113.38 92.1706 115.495 95.1855 116.744C98.2005 117.993 101.518 118.319 104.719 117.683C107.919 117.046 110.859 115.475 113.167 113.167C115.475 110.859 117.046 107.919 117.683 104.719C118.319 101.518 117.993 98.2005 116.744 95.1855C115.495 92.1707 113.38 89.5943 110.667 87.7812C107.954 85.9682 104.763 85 101.5 85Z" fill="#232323" stroke="#D9D9D9" stroke-width="4"/>
<path d="M231.627 146.998C233.329 146.909 235.03 147.187 236.615 147.814C238.199 148.441 239.63 149.403 240.809 150.632L240.823 150.647L240.836 150.661L284.314 194.239V194.24C286.591 196.597 287.851 199.754 287.823 203.032C287.794 206.309 286.479 209.445 284.162 211.762C281.844 214.08 278.709 215.394 275.431 215.422C272.256 215.45 269.193 214.269 266.862 212.125L266.639 211.915L232.615 177.89L231.207 179.498L187.222 229.724H187.172L186.576 230.408L139.915 283.739C137.73 286.235 134.642 287.762 131.332 287.982C128.021 288.202 124.759 287.098 122.262 284.914C119.766 282.729 118.239 279.641 118.019 276.331C117.799 273.02 118.903 269.758 121.087 267.261L121.086 267.26L159.555 223.372L160.79 221.962L159.465 220.639L131.916 193.088L130.501 191.675L129.087 193.087L81.3394 240.779L81.314 240.804C80.1609 241.998 78.7813 242.95 77.2563 243.605C75.7313 244.26 74.0909 244.605 72.4312 244.62C70.7715 244.634 69.1255 244.317 67.5894 243.689C66.0532 243.06 64.6575 242.132 63.4839 240.959C62.3103 239.785 61.3819 238.389 60.7534 236.853C60.125 235.317 59.8083 233.671 59.8228 232.011C59.8372 230.352 60.1823 228.711 60.8374 227.186C61.4925 225.661 62.4454 224.282 63.6392 223.129L63.6509 223.117L63.6636 223.105L121.664 165.105C124.008 162.762 127.186 161.445 130.5 161.445C133.815 161.445 136.994 162.761 139.338 165.104L175.733 201.514L177.244 203.025L178.652 201.418L222.583 151.264L222.584 151.265C223.716 149.978 225.099 148.936 226.648 148.203C228.197 147.469 229.88 147.059 231.593 146.999H231.61L231.627 146.998Z" fill="#232323" stroke="#D9D9D9" stroke-width="4"/>
</svg>
