<svg width="137" height="106" viewBox="0 0 137 106" fill="none" xmlns="http://www.w3.org/2000/svg">
<path d="M0.98584 5.00023C0.98584 3.67409 1.51265 2.40226 2.45037 1.46453C3.3881 0.526809 4.65993 0 5.98607 0H115.991C117.317 0 118.589 0.526809 119.527 1.46453C120.465 2.40226 120.991 3.67409 120.991 5.00023C120.991 6.32637 120.465 7.5982 119.527 8.53592C118.589 9.47365 117.317 10.0005 115.991 10.0005H5.98607C4.65993 10.0005 3.3881 9.47365 2.45037 8.53592C1.51265 7.5982 0.98584 6.32637 0.98584 5.00023ZM5.98607 50.0023H80.9895C82.3156 50.0023 83.5875 49.4755 84.5252 48.5378C85.4629 47.6 85.9897 46.3282 85.9897 45.0021C85.9897 43.6759 85.4629 42.4041 84.5252 41.4664C83.5875 40.5286 82.3156 40.0018 80.9895 40.0018H5.98607C4.65993 40.0018 3.3881 40.5286 2.45037 41.4664C1.51265 42.4041 0.98584 43.6759 0.98584 45.0021C0.98584 46.3282 1.51265 47.6 2.45037 48.5378C3.3881 49.4755 4.65993 50.0023 5.98607 50.0023ZM50.9881 80.0037H5.98607C4.65993 80.0037 3.3881 80.5305 2.45037 81.4682C1.51265 82.4059 0.98584 83.6778 0.98584 85.0039C0.98584 86.33 1.51265 87.6019 2.45037 88.5396C3.3881 89.4773 4.65993 90.0041 5.98607 90.0041H50.9881C52.3143 90.0041 53.5861 89.4773 54.5238 88.5396C55.4615 87.6019 55.9884 86.33 55.9884 85.0039C55.9884 83.6778 55.4615 82.4059 54.5238 81.4682C53.5861 80.5305 52.3143 80.0037 50.9881 80.0037ZM132.429 37.6892L107.428 30.1889C106.676 29.9768 105.884 29.9398 105.115 30.0806C104.346 30.2214 103.619 30.5364 102.991 31.0014C102.373 31.4705 101.872 32.0751 101.525 32.7687C101.178 33.4622 100.995 34.2262 100.99 35.0016V67.6906C97.1771 65.489 92.7439 64.6073 88.3783 65.1822C84.0128 65.7572 79.959 67.7567 76.8458 70.8705C73.7325 73.9844 71.7338 78.0386 71.1598 82.4042C70.5857 86.7699 71.4683 91.203 73.6707 95.0158C75.873 98.8287 79.2721 101.808 83.3406 103.492C87.409 105.176 91.9195 105.471 96.1724 104.33C100.425 103.189 104.183 100.676 106.862 97.1821C109.541 93.6879 110.993 89.4071 110.991 85.0039V41.7519L129.554 47.3147C130.831 47.6959 132.206 47.5545 133.378 46.9216C134.551 46.2886 135.423 45.2159 135.805 43.9395C136.186 42.6631 136.044 41.2875 135.411 40.1154C134.778 38.9432 133.706 38.0705 132.429 37.6892Z" fill="#D9D9D9"/>
</svg>
