<svg width="58" height="58" viewBox="0 0 58 58" fill="none" xmlns="http://www.w3.org/2000/svg">
<path d="M42.0209 30.9715C40.8072 29.7659 38.8041 30.6186 38.8041 32.3247V36.1545H34.9536L20.3217 16.7621C19.8403 16.1242 19.0783 15.7414 18.268 15.7414H10.567C9.14794 15.7414 8 16.8817 8 18.293C8 19.7044 9.14794 20.8447 10.567 20.8447H16.9845L31.6165 40.2372C32.0978 40.883 32.8599 41.2578 33.6701 41.2578H38.8017V45.0805C38.8017 46.7861 40.8762 47.6417 42.0899 46.4361L48.4352 40.0585C49.1883 39.31 49.1883 38.0978 48.4352 37.3498L42.0209 30.9715ZM34.9536 20.8447H38.8017V24.6745C38.8017 26.3802 40.877 27.2334 42.0185 26.0277L48.3638 19.6502C49.1169 18.9014 49.1167 17.6894 48.3637 16.9415L42.0184 10.564C40.8047 9.35831 38.7302 10.2138 38.7302 11.9195V15.7414H33.6701C32.8631 15.7414 32.101 16.1202 31.6173 16.7629L28.3757 21.06L31.5122 25.3101L34.9536 20.8447ZM16.9845 36.1545H10.567C9.14794 36.1545 8 37.2956 8 38.7062C8 40.1168 9.14794 41.2578 10.567 41.2578H18.268C19.075 41.2578 19.8371 40.8791 20.3209 40.2364L23.5617 35.9408L20.3537 31.6892L16.9845 36.1545Z" fill="#878787"/>
</svg>
