<svg width="58" height="58" viewBox="0 0 58 58" fill="none" xmlns="http://www.w3.org/2000/svg">
<path d="M49.5888 26.5629C49.1736 26.1982 48.6306 26.0131 48.0791 26.0483C47.5275 26.0835 47.0125 26.3361 46.647 26.7507C46.3268 24.0204 45.4308 21.3892 44.0181 19.031C42.7056 16.8596 40.9716 14.9729 38.9184 13.4823C36.8651 11.9916 34.5342 10.9271 32.0631 10.3516C29.5673 9.75032 26.9763 9.65468 24.443 10.0703C21.9096 10.486 19.4851 11.4045 17.3123 12.7718C12.9214 15.5139 9.779 19.8665 8.55835 24.8973C7.3377 29.9281 8.13587 35.2369 10.7819 39.6863C12.0864 41.8604 13.8123 43.7518 15.8582 45.2495C17.904 46.7471 20.2285 47.8208 22.6952 48.4074C25.2006 49.0025 27.7996 49.0913 30.3398 48.6685C32.8799 48.2457 35.3101 47.32 37.4877 45.9455C39.4196 44.7393 41.1279 43.2075 42.5368 41.418C42.8779 40.9856 43.0343 40.4359 42.9717 39.8888C42.9092 39.3416 42.6329 38.8413 42.203 38.4971C41.9883 38.3249 41.7416 38.1969 41.4773 38.1205C41.2129 38.0441 40.936 38.0207 40.6626 38.0518C40.3891 38.0828 40.1245 38.1676 39.884 38.3013C39.6435 38.435 39.4318 38.615 39.2611 38.8309C37.4583 41.1265 35.0392 42.8616 32.2867 43.8333C29.5342 44.805 26.562 44.9731 23.7175 44.3181C21.7909 43.8764 19.9718 43.0548 18.3668 41.9012C16.7618 40.7476 15.4032 39.2853 14.3705 37.5999C12.259 34.0876 11.6159 29.8849 12.5804 25.9019C13.5449 21.9188 16.0395 18.476 19.5239 16.3187C21.2306 15.2477 23.1332 14.5265 25.121 14.197C27.1088 13.8675 29.1423 13.9362 31.1033 14.3992C33.0297 14.8616 34.8447 15.703 36.4423 16.8744C38.04 18.0457 39.3883 19.5236 40.4087 21.2217C41.6349 23.3136 42.3498 25.6655 42.4951 28.086L41.3475 27.0428C41.1428 26.8577 40.9033 26.7151 40.6431 26.6233C40.3828 26.5314 40.1069 26.4921 39.8314 26.5077C39.5558 26.5232 39.2861 26.5932 39.0378 26.7137C38.7895 26.8342 38.5676 27.0028 38.3849 27.2097C38.0176 27.6222 37.8289 28.1636 37.8602 28.7151C37.8915 29.2665 38.1402 29.7831 38.5518 30.1515L42.9123 34.053H43.0375L43.3296 34.22C43.3296 34.22 43.4757 34.3451 43.5591 34.366H43.7678H43.8929H44.2894H44.498C44.6434 34.3858 44.7908 34.3858 44.9361 34.366H45.1448C45.1448 34.366 45.1448 34.366 45.2908 34.2617L45.6664 33.9905C45.6664 33.9905 45.7916 33.9904 45.8542 33.8444L49.714 29.4838C50.08 29.0777 50.272 28.544 50.2486 27.9978C50.2252 27.4515 49.9882 26.9363 49.5888 26.5629Z" fill="#878787"/>
</svg>
