<svg width="58" height="58" viewBox="0 0 58 58" fill="none" xmlns="http://www.w3.org/2000/svg">
<path d="M8.4112 26.5629C8.82644 26.1982 9.36941 26.0131 9.92094 26.0483C10.4725 26.0835 10.9875 26.3361 11.353 26.7507C11.6732 24.0204 12.5692 21.3892 13.9819 19.031C15.2944 16.8596 17.0284 14.9729 19.0816 13.4823C21.1349 11.9916 23.4658 10.9271 25.9369 10.3516C28.4327 9.75032 31.0237 9.65468 33.557 10.0703C36.0904 10.486 38.5149 11.4045 40.6877 12.7718C45.0786 15.5139 48.221 19.8665 49.4416 24.8973C50.6623 29.9281 49.8641 35.2369 47.2181 39.6863C45.9136 41.8604 44.1877 43.7518 42.1418 45.2495C40.096 46.7471 37.7715 47.8208 35.3048 48.4074C32.7994 49.0025 30.2004 49.0913 27.6602 48.6685C25.1201 48.2457 22.6899 47.32 20.5123 45.9455C18.5804 44.7393 16.8721 43.2075 15.4632 41.418C15.1221 40.9856 14.9657 40.4359 15.0283 39.8888C15.0908 39.3416 15.3671 38.8413 15.797 38.4971C16.0117 38.3249 16.2584 38.1969 16.5227 38.1205C16.7871 38.0441 17.064 38.0207 17.3374 38.0518C17.6109 38.0828 17.8755 38.1676 18.116 38.3013C18.3565 38.435 18.5682 38.615 18.7389 38.8309C20.5417 41.1265 22.9608 42.8616 25.7133 43.8333C28.4658 44.8049 31.438 44.9731 34.2825 44.3181C36.2091 43.8764 38.0282 43.0548 39.6332 41.9012C41.2382 40.7476 42.5968 39.2853 43.6295 37.5999C45.741 34.0876 46.3841 29.8849 45.4196 25.9019C44.4551 21.9188 41.9605 18.476 38.4761 16.3187C36.7694 15.2477 34.8668 14.5265 32.879 14.197C30.8912 13.8675 28.8577 13.9362 26.8967 14.3992C24.9703 14.8616 23.1553 15.703 21.5577 16.8744C19.96 18.0457 18.6117 19.5236 17.5913 21.2217C16.3651 23.3136 15.6502 25.6655 15.5049 28.086L16.6525 27.0428C16.8572 26.8577 17.0967 26.7151 17.3569 26.6233C17.6172 26.5314 17.8931 26.4921 18.1686 26.5077C18.4442 26.5232 18.7139 26.5932 18.9622 26.7137C19.2105 26.8342 19.4324 27.0028 19.6151 27.2097C19.9824 27.6222 20.1711 28.1636 20.1398 28.7151C20.1085 29.2665 19.8598 29.7831 19.4482 30.1515L15.0877 34.053H14.9625L14.6704 34.22C14.6704 34.22 14.5243 34.3451 14.4409 34.366H14.2322H14.1071H13.7106H13.502C13.3566 34.3858 13.2092 34.3858 13.0639 34.366H12.8552C12.8552 34.366 12.8552 34.366 12.7092 34.2617L12.3336 33.9905C12.3336 33.9905 12.2084 33.9905 12.1458 33.8444L8.28601 29.4838C7.91998 29.0777 7.72802 28.544 7.75143 27.9978C7.77484 27.4515 8.01176 26.9363 8.4112 26.5629Z" fill="#878787"/>
</svg>
