<svg width="1280" height="1280" viewBox="0 0 1280 1280" fill="none" xmlns="http://www.w3.org/2000/svg">
<g clip-path="url(#clip0_119_641)">
<rect width="1280" height="1280" rx="342" fill="#222222"/>
<path d="M1029.19 619.807C1033.36 612.835 1037.53 605.862 1041.7 598.89C1007.04 576.573 972.34 554.314 937.608 532.113C773.503 427.216 608.621 323.616 442.963 221.313C442.938 221.297 442.861 221.253 442.835 221.237C432.917 215.048 418.556 209.789 404.407 209.868C364.973 208.857 330.69 244.081 331.234 282.854L361.218 252.87C361.145 252.869 361.073 252.868 361 252.867C344.038 252.671 331.209 265.892 331.013 282.854C329.338 427.784 328.5 572.714 328.5 717.644C328.5 824.145 328.952 930.645 329.857 1037.15C330.007 1054.76 343.384 1068.44 361 1068.29C361.073 1068.29 361.145 1068.29 361.218 1068.29L330.077 1037.15C329.448 1076.52 364.208 1112.44 404.407 1111.5C420.243 1111.62 434.687 1104.98 443.267 1100.1C443.485 1099.98 444.139 1099.61 444.353 1099.48C642.875 977.732 840.287 854.126 1036.59 728.665C1038.91 727.181 1041.23 725.697 1043.55 724.212C1043.98 723.939 1045.21 723.101 1045.59 722.764C1063.62 707.077 1073.81 683.261 1073.04 660C1072.63 636.68 1061.05 614.103 1043.35 600.076C1038.08 606.258 1032.81 612.439 1027.53 618.621C1039.27 629.377 1045.67 644.763 1044.96 660C1044.44 675.266 1036.93 689.626 1025.3 698.539L1027.33 697.091C1024.92 698.435 1022.52 699.779 1020.11 701.124C816.738 814.763 614.474 930.258 413.321 1047.61L414.407 1046.99C411.356 1048.6 408.965 1049.63 407.472 1050.07C405.942 1050.52 405.349 1050.53 404.407 1050.5C398.14 1050.56 391.913 1043.95 392.359 1037.15C392.509 1019.53 378.834 1006.15 361.218 1006C361.145 1006 361.073 1006 361 1006L392.143 1037.15C393.048 930.645 393.5 824.145 393.5 717.644C393.5 572.714 392.662 427.784 390.987 282.854L361 312.841C361.073 312.84 361.145 312.839 361.218 312.838C378.179 312.642 391.399 299.815 391.202 282.854C390.671 275.45 397.374 268.144 404.407 268.132C407.06 268.078 409.133 268.396 413.53 270.796L413.402 270.72C581.869 368.329 751.112 464.64 921.131 559.654C957.114 579.763 993.132 599.814 1029.19 619.807ZM1041.7 598.89L1029.19 619.807L1027.53 618.621L1043.35 600.076C1043.03 599.819 1042.05 599.113 1041.7 598.89Z" fill="#C74444"/>
</g>
<defs>
</defs>
</svg>
