<svg width="1280" height="1280" viewBox="0 0 1280 1280" fill="none" xmlns="http://www.w3.org/2000/svg">
<g clip-path="url(#clip0_119_641)">
<rect width="1280" height="1280" fill="white"/>
<rect width="1280" height="1280" rx="342" fill="#222222"/>
<path d="M1021 633.483C1030.63 617.393 1040.26 601.303 1049.88 585.214C1016.13 561.377 982.296 537.674 948.383 514.106C788.143 402.747 626.113 294.381 462.291 189.008C462.234 188.971 462.054 188.87 461.997 188.833C448.468 180.167 426.072 171.678 404.407 171.772C343.788 170.092 291.471 223.57 292.024 282.854L361.218 213.66C361.145 213.658 361.073 213.656 361 213.654C321.868 212.61 292.844 243.722 291.8 282.854C287.933 427.784 286 572.714 286 717.644C286 824.145 287.044 930.645 289.132 1037.15C289.929 1077.79 320.353 1109.81 361 1109.01C361.073 1109.01 361.145 1109.01 361.218 1109.01L289.354 1037.15C288.605 1097.81 342.022 1152.91 404.407 1151.38C429.592 1151.53 452.144 1140.69 462.136 1134.83C462.637 1134.54 464.155 1133.71 464.643 1133.4C661.444 1008.77 855.684 879.864 1047.36 746.673C1049.63 745.097 1051.9 743.521 1054.16 741.944C1055.12 741.278 1058.02 739.413 1058.86 738.604C1081.07 718.487 1093 688.489 1091.4 660C1090.27 631.395 1075.29 604.116 1053.69 587.95C1041.53 602.216 1029.36 616.481 1017.19 630.747C1025.03 639.365 1028.04 650.048 1026.6 660C1025.25 670.038 1019.47 678.215 1012.03 682.699L1016.72 679.359C1014.26 680.61 1011.8 681.863 1009.34 683.116C801.341 789.025 595.905 899.217 393.031 1013.69L395.537 1012.26C393.442 1013.3 392.999 1013.18 394.897 1012.41C396.7 1011.64 400.947 1010.67 404.407 1010.62C420.325 1010.09 432.756 1022.66 433.082 1037.15C433.879 996.501 401.863 966.079 361.218 965.282C361.145 965.28 361.073 965.279 361 965.278L432.868 1037.15C434.956 930.645 436 824.145 436 717.644C436 572.714 434.067 427.784 430.2 282.854L361 352.055C361.073 352.053 361.145 352.051 361.218 352.049C400.347 351.004 431.457 321.983 430.413 282.854C429.89 295.96 418.56 306.91 404.407 306.228C399.544 306.19 393.582 303.278 394.368 303.2L394.074 303.025C564.377 397.564 736.471 489.109 910.357 577.661C947.158 596.403 984.04 615.01 1021 633.483ZM1049.88 585.214L1021 633.483L1017.19 630.747L1053.69 587.95C1052.93 587.389 1050.66 585.762 1049.88 585.214Z" fill="#C74444"/>
</g>
<defs>
<clipPath id="clip0_119_641">
<rect width="1280" height="1280" fill="white"/>
</clipPath>
</defs>
</svg>
