<svg width="18" height="20" viewBox="0 0 18 20" fill="none" xmlns="http://www.w3.org/2000/svg">
<path d="M16.9001 9C16.3001 9 15.9001 9.4 15.9001 10C15.9001 13.9 12.8001 17 8.90007 17C8.70007 17 8.40007 17 8.20007 17C8.00007 17 7.90007 17 7.70007 16.9C7.50007 16.9 7.40007 16.8 7.20007 16.8C7.10007 16.8 7.00007 16.7 6.90007 16.7C6.20007 16.5 5.50007 16.1 4.90007 15.7C4.80007 15.6 4.70007 15.6 4.70007 15.5C4.60007 15.4 4.50007 15.3 4.40007 15.3C4.20007 15.2 4.00007 15 3.90007 14.9C3.80007 14.8 3.80007 14.8 3.70007 14.7L5.50007 14.4C6.00007 14.3 6.40007 13.8 6.30007 13.2C6.20007 12.7 5.70007 12.3 5.10007 12.4L1.80007 13L1.00007 13.2C0.700073 13.2 0.500073 13.4 0.400073 13.6C0.300073 13.8 0.200073 14.1 0.200073 14.3L1.00007 18.5C1.10007 19 1.50007 19.3 2.00007 19.3C2.10007 19.3 2.10007 19.3 2.20007 19.3C2.70007 19.2 3.10007 18.7 3.00007 18.1L2.70007 16.4C2.90007 16.6 3.20007 16.8 3.40007 17C3.40007 17 3.40007 17 3.50007 17C3.60007 17.1 3.70007 17.2 3.80007 17.2C4.00007 17.4 4.20007 17.5 4.50007 17.6C4.70007 18 5.00007 18.1 5.30007 18.3H5.40007C5.50007 18.4 5.70007 18.4 5.90007 18.5C6.30007 18.6 6.70007 18.7 7.00007 18.8C7.20007 18.8 7.40007 18.9 7.60007 18.9H7.70007C7.80007 18.9 8.00007 18.9 8.10007 18.9C8.30007 18.9 8.60007 18.9 8.80007 18.9C13.8001 18.9 17.8001 14.9 17.8001 9.9C17.9001 9.4 17.4001 9 16.9001 9Z" fill="black"/>
<path d="M1.00003 11C1.60003 11 2.00003 10.6 2.00003 10C2.00003 6.1 5.10003 3 9.00003 3C9.20003 3 9.50003 3 9.70003 3C9.90003 3 10 3 10.2 3.1C10.4 3.1 10.5 3.2 10.7 3.2C10.8 3.2 10.9 3.3 11 3.3C11.7 3.5 12.4 3.8 13 4.3C13.1 4.4 13.2 4.4 13.3 4.5C13.4 4.6 13.5 4.6 13.6 4.7C13.7 4.8 13.8 5 14 5.1C14.1 5.2 14.1 5.2 14.2 5.3L12.4 5.6C11.9 5.7 11.5 6.2 11.6 6.8C11.7 7.3 12.1 7.6 12.6 7.6C12.7 7.6 12.7 7.6 12.8 7.6L17 6.8C17.5 6.7 17.9 6.2 17.8 5.6L17 1.5C16.9 0.999996 16.4 0.599996 15.8 0.699996C15.3 0.799996 14.9 1.3 15 1.9L15.3 3.6C15.1 3.4 14.8 3.1 14.6 3C14.6 3 14.6 3 14.5 3C14.4 2.9 14.3 2.8 14.2 2.8C14 2.6 13.8 2.5 13.5 2.3C13.2 2.1 12.9 2 12.6 1.8H12.5C12.4 1.7 12.2 1.7 12 1.6C11.6 1.5 11.2 1.4 10.9 1.3C10.7 1.3 10.5 1.2 10.3 1.2H10.2C10.1 1.2 9.90003 1.2 9.80003 1.2C9.60003 1.2 9.30003 1.2 9.10003 1.2C4.10003 1.2 0.100031 5.2 0.100031 10.2C3.11658e-05 10.6 0.400031 11 1.00003 11Z" fill="black"/>
</svg>
