<svg width="18" height="18" viewBox="0 0 18 18" fill="none" xmlns="http://www.w3.org/2000/svg">
<path d="M16.6943 15.2876L10.4015 8.99482L16.7655 2.63086C17.4261 1.97018 17.6478 1.65538 16.9872 0.9947C16.3265 0.33402 16.0119 0.555966 15.3513 1.21665L8.98729 7.58061L2.69427 1.28747C2.03359 0.626795 1.64784 0.334007 0.987159 0.994687C0.32648 1.65537 0.619396 2.04106 1.28008 2.70174L7.57308 8.99482L1.28023 15.2877C0.61955 15.9483 0.326432 16.334 0.987112 16.9947C1.64779 17.6554 2.03376 17.3626 2.69444 16.7019L8.98729 10.409L15.2801 16.7018C15.9408 17.3625 16.3266 17.6554 16.9873 16.9947C17.6432 16.334 17.3503 15.9436 16.6943 15.2876Z" fill="#D9D9D9"/>
</svg>
