<svg width="18" height="19" viewBox="0 0 18 19" fill="none" xmlns="http://www.w3.org/2000/svg">
<path d="M17.5045 15.6195L11.385 9.5L17.5045 3.38052C18.1652 2.71984 18.1652 1.65619 17.5045 0.99551C16.8438 0.33483 15.7802 0.33483 15.1195 0.99551L9 7.11499L2.88052 0.99551C2.21984 0.33483 1.15619 0.33483 0.49551 0.99551C-0.16517 1.65619 -0.16517 2.71984 0.49551 3.38052L6.61499 9.5L0.49551 15.6195C-0.16517 16.2802 -0.16517 17.3438 0.49551 18.0045C1.15619 18.6652 2.21984 18.6652 2.88052 18.0045L9 11.885L15.1195 18.0045C15.7802 18.6652 16.8438 18.6652 17.5045 18.0045C18.1605 17.3438 18.1605 16.2755 17.5045 15.6195Z" fill="#D9D9D9"/>
</svg>
